<svg width="363" height="305" viewBox="0 0 363 305" fill="none" xmlns="http://www.w3.org/2000/svg">
<path d="M211.822 0.120117C219.391 -0.878078 252.54 4.68314 252.653 4.70215C252.653 4.70215 276.163 16.1199 281.112 19.5957C286.062 23.0716 292.248 29.9062 292.248 29.9062C292.306 29.9229 301.765 32.6259 309.57 34.4893C317.4 36.3586 334.316 51.6738 334.316 51.6738C334.35 51.7061 349.991 66.6467 354.113 76.8779C358.24 87.1202 362.774 106.247 362.774 114.684V190.296C362.774 200.62 354.113 216.646 354.113 216.646C354.069 216.724 340.382 241.046 334.316 247.578C328.244 254.116 292.301 283.05 292.248 283.093C292.248 283.093 284.584 288.395 276.162 292.258C267.74 296.12 241.518 299.132 241.518 299.132L196.975 304.859C196.975 304.859 152.397 304.859 134.241 304.859C116.086 304.859 92.5409 289.565 83.1406 283.093C73.7404 276.62 51.8025 262.866 46.0215 256.743C40.2408 250.62 22.8608 232.685 18.8008 224.665C14.7476 216.659 4.77343 178.743 4.74121 178.62C4.74121 178.62 -1.25879 143.12 0.241211 133.014C1.74142 122.907 16.2409 83.1206 18.8008 76.8779C21.357 70.6443 45.9532 42.5867 46.0215 42.5088C46.0215 42.5088 70.7399 26.6208 78.1914 24.1787C85.6134 21.7466 90.5263 24.1599 90.5645 24.1787C90.5645 24.1787 102.741 13.1199 107.888 10.4307C113.035 7.74144 137.583 4.70215 137.583 4.70215H161.092C168.42 4.70215 182.041 10.395 182.126 10.4307C182.126 10.4307 204.241 1.12012 211.822 0.120117Z" fill="#D00019"/>
<path d="M211.822 0.120117C219.391 -0.878078 252.54 4.68314 252.653 4.70215C252.653 4.70215 276.163 16.1199 281.112 19.5957C286.062 23.0716 292.248 29.9062 292.248 29.9062C292.306 29.9229 301.765 32.6259 309.57 34.4893C317.4 36.3586 334.316 51.6738 334.316 51.6738C334.35 51.7061 349.991 66.6467 354.113 76.8779C358.24 87.1202 362.774 106.247 362.774 114.684V190.296C362.774 200.62 354.113 216.646 354.113 216.646C354.069 216.724 340.382 241.046 334.316 247.578C328.244 254.116 292.301 283.05 292.248 283.093C292.248 283.093 284.584 288.395 276.162 292.258C267.74 296.12 241.518 299.132 241.518 299.132L196.975 304.859C196.975 304.859 152.397 304.859 134.241 304.859C116.086 304.859 92.5409 289.565 83.1406 283.093C73.7404 276.62 51.8025 262.866 46.0215 256.743C40.2408 250.62 22.8608 232.685 18.8008 224.665C14.7476 216.659 4.77343 178.743 4.74121 178.62C4.74121 178.62 -1.25879 143.12 0.241211 133.014C1.74142 122.907 16.2409 83.1206 18.8008 76.8779C21.357 70.6443 45.9532 42.5867 46.0215 42.5088C46.0215 42.5088 70.7399 26.6208 78.1914 24.1787C85.6134 21.7466 90.5263 24.1599 90.5645 24.1787C90.5645 24.1787 102.741 13.1199 107.888 10.4307C113.035 7.74144 137.583 4.70215 137.583 4.70215H161.092C168.42 4.70215 182.041 10.395 182.126 10.4307C182.126 10.4307 204.241 1.12012 211.822 0.120117Z" stroke="#C80119"/>
<path d="M174.703 82.6058L169.753 74.5864L157.38 71.1495L142.532 68.8582L119.023 67.7125L105.413 71.1495L93.0396 74.5864L84.3784 79.1689L88.0903 71.1495L100.464 60.8387L119.023 55.1105H141.295L131.396 48.2367L115.311 37.926L100.464 33.3434H86.853L93.0396 27.6152H112.837L128.922 31.0521L147.482 37.926L162.329 48.2367L158.617 31.0521L157.38 19.5958L154.905 11.5763L166.041 15.0132L183.364 26.4696L193.262 37.926L195.737 51.6736L209.347 40.2172L229.145 31.0521L261.315 29.9065L282.349 33.3434L291.01 37.926L274.925 40.2172L268.739 42.5085L250.179 48.2367L235.331 53.9649L267.501 57.4018L284.824 64.2756L255.128 67.7125L237.806 71.1495L219.246 75.732L206.873 74.5864H198.212V82.6058L190.788 95.2078L174.703 82.6058Z" fill="#00765A"/>
<path d="M171.241 51.5316L175.041 62.1199H186.441L190.241 57.414L186.441 51.5316L182.641 42.1199V32.1199L171.241 35.061V51.5316Z" fill="#391414"/>
</svg>
